<svg width="144" height="40" viewBox="0 0 144 40" fill="none" xmlns="http://www.w3.org/2000/svg">
<path fill-rule="evenodd" clip-rule="evenodd" d="M2.17898 7.89443L9.04064 3.91339V15.0847C9.0271 19.2282 11.9369 22.9384 15.9429 23.9134L16.0376 23.9405L15.9835 24.0082C15.8888 24.13 15.8076 24.2384 15.6993 24.3467C15.3339 24.7123 14.9414 25.0373 14.5083 25.3216C14.0752 25.606 13.6286 25.8497 13.1549 26.0529C12.6677 26.256 12.167 26.4049 11.6527 26.5133C11.1113 26.6216 10.6512 26.6757 10.1504 26.6757H10.0963C9.55492 26.6757 9.01357 26.6216 8.48575 26.5133C7.97147 26.4049 7.47071 26.256 6.98349 26.0393C6.50981 25.8362 6.04966 25.5925 5.63011 25.3081C5.21056 25.0237 4.80455 24.6988 4.45267 24.3332C4.08725 23.9676 3.76244 23.5749 3.47823 23.1551C3.19402 22.7218 2.95041 22.2749 2.7474 21.801C2.5444 21.3271 2.39553 20.826 2.28725 20.3115C2.17898 19.7563 2.16545 19.1876 2.16545 18.7001V7.93505L2.17898 7.89443ZM19.4346 21.977C19.8271 20.8667 20.0301 19.7699 20.0436 18.7407V6.93302L25.2406 3.95401V15.1253C25.2406 15.6263 25.1865 16.1138 25.1053 16.5471C25.0106 16.994 24.8752 17.4408 24.6858 17.8741C24.5098 18.2939 24.2797 18.7001 24.0226 19.0657C23.7655 19.4449 23.4677 19.7969 23.1564 20.1084C22.8316 20.4334 22.4797 20.7177 22.1008 20.975C21.7218 21.2323 21.3158 21.4489 20.8963 21.625C20.4632 21.8145 20.0707 21.9364 19.57 22.0312C19.5564 22.0312 19.5294 22.0312 19.5158 22.0447L19.4211 22.0583L19.4346 21.977ZM0.108307 6.81115V18.6595C0.0947732 24.1436 4.56094 28.6256 10.0827 28.6392H10.1098C11.8557 28.6392 13.588 28.1788 15.0903 27.3122L22.385 23.1416C25.403 21.5843 27.2978 18.5105 27.2978 15.1253V2.74886C27.2978 2.70824 27.2842 2.68116 27.2436 2.66762L25.4572 1.62496C25.4301 1.61142 25.3895 1.61142 25.3624 1.62496L18.0406 5.74142C18.0136 5.75496 17.9865 5.79558 17.9865 5.82266V18.7137C17.9865 19.2553 17.9324 19.7969 17.8241 20.325C17.7158 20.8396 17.5534 21.3406 17.3504 21.8145C17.3098 21.9093 17.2692 21.9906 17.2286 22.0854L17.2151 22.126H17.1745C17.0527 22.1124 16.9715 22.0989 16.7549 22.0583L16.7008 22.0447C16.2406 21.9499 15.3068 21.6927 14.197 20.975C13.8181 20.7177 13.4662 20.4334 13.1414 20.1084C12.8166 19.7834 12.5324 19.4313 12.2752 19.0522C12.0181 18.673 11.8015 18.2668 11.6256 17.847C11.4497 17.4273 11.3143 16.9804 11.2196 16.52C11.1384 16.1138 11.0978 15.694 11.1113 15.1118V2.74886C11.1113 2.70824 11.0978 2.68116 11.0572 2.66762L9.27071 1.58434C9.25718 1.5708 9.23011 1.5708 9.21658 1.5708C9.20304 1.5708 9.17598 1.5708 9.16244 1.58434L0.148909 6.72991C0.121841 6.74345 0.108307 6.78407 0.108307 6.81115Z" fill="#2015FF"/>
<path fill-rule="evenodd" clip-rule="evenodd" d="M49.9669 16.5877C49.9669 18.673 48.1805 20.2979 45.9068 20.2979C43.6331 20.2979 41.9008 18.7001 41.9008 16.5877V8.21935H39.8436V16.6147C39.8436 19.851 42.388 22.1936 45.9068 22.1936C49.4256 22.1936 52.0241 19.851 52.0241 16.6147V8.20581H49.9669V16.5877Z" fill="#0B0B0B"/>
<path fill-rule="evenodd" clip-rule="evenodd" d="M67.6422 15.1117C67.6422 18.2667 65.7745 20.1489 62.6482 20.1489L60.2392 20.1354V10.088H62.6482C65.7745 10.088 67.6422 11.9567 67.6422 15.1117ZM62.77 8.21935L58.2091 8.20581H58.182V22.0176H62.7564C66.9655 22.0176 69.6993 19.3094 69.6993 15.1117C69.6722 10.9275 66.9655 8.21935 62.77 8.21935Z" fill="#0B0B0B"/>
<path fill-rule="evenodd" clip-rule="evenodd" d="M141.605 8.20581L137.585 14.0013L133.538 8.21935L133.525 8.20581H131.211L136.556 16.1273V22.0176H138.614V16.1408L143.865 8.25997L143.892 8.20581H141.605Z" fill="#0B0B0B"/>
<path fill-rule="evenodd" clip-rule="evenodd" d="M116.242 10.088H120.965V22.0176H123.023V10.088H127.746V8.20581H116.242V10.088Z" fill="#0B0B0B"/>
<path fill-rule="evenodd" clip-rule="evenodd" d="M108.731 22.0176H110.788V8.20581H108.731V22.0176Z" fill="#0B0B0B"/>
<path fill-rule="evenodd" clip-rule="evenodd" d="M101.125 18.673C101.111 18.6865 99.582 20.2979 97.1459 20.2979C94.3173 20.2979 92.179 18.023 92.179 15.0034C92.179 11.9837 94.3038 9.91196 97.1053 9.91196C99.379 9.91196 100.827 11.239 100.841 11.2525L101.138 11.5233L102.235 10.0203L102.032 9.80363C101.964 9.73593 100.313 8.00269 97.0782 8.00269C93.1128 8.04331 90.1354 11.0494 90.1354 15.0304C90.1354 19.0115 93.1399 22.1936 97.1324 22.1936C100.475 22.1936 102.316 20.1354 102.397 20.0541L102.6 19.8375L101.409 18.3886L101.125 18.673Z" fill="#0B0B0B"/>
<path fill-rule="evenodd" clip-rule="evenodd" d="M81.7308 15.87L77.6436 16.696L79.8496 11.2796L81.7308 15.87ZM80.7969 8.21936H78.9157L73.2992 22.0176H75.4646L76.7097 18.9709L82.5022 17.7928L84.221 22.0041L84.2345 22.0311H86.4L80.7969 8.2329V8.21936Z" fill="#0B0B0B"/>
<path d="M73.1368 29.5599H75.0451C75.3835 29.5599 75.6812 29.6006 75.9519 29.6683C76.2226 29.7495 76.4526 29.8578 76.6421 30.0068C76.8316 30.1557 76.9804 30.3453 77.0887 30.5755C77.197 30.8057 77.2511 31.0765 77.2511 31.388V31.415C77.2511 31.7265 77.197 31.9973 77.0887 32.2275C76.9804 32.4577 76.8316 32.6337 76.6421 32.7827C76.4526 32.9316 76.2226 33.04 75.9519 33.1077C75.6812 33.1754 75.397 33.216 75.0722 33.216H74.2466V35.4773H73.1368V29.5599ZM75.0451 32.4306C75.4105 32.4306 75.6947 32.3494 75.8842 32.1733C76.0737 31.9973 76.1684 31.7536 76.1684 31.415V31.388C76.1684 31.0359 76.0737 30.7786 75.8707 30.6297C75.6677 30.4807 75.397 30.3995 75.0451 30.3995H74.2466V32.4306H75.0451Z" fill="black"/>
<path d="M79.2001 35.5721C78.997 35.5721 78.8076 35.545 78.6316 35.4909C78.4557 35.4367 78.3068 35.369 78.1715 35.2607C78.0361 35.1523 77.9414 35.0305 77.8602 34.868C77.779 34.7055 77.7384 34.5159 77.7384 34.2857C77.7384 34.0284 77.7925 33.8118 77.9143 33.6358C78.0361 33.4597 78.185 33.3243 78.388 33.216C78.591 33.1077 78.8211 33.0264 79.0918 32.9858C79.3625 32.9316 79.6467 32.9045 79.9579 32.9045H80.4993V32.6744C80.4993 32.3765 80.4452 32.1598 80.3234 32.0108C80.2151 31.8619 79.9986 31.7942 79.7008 31.7942C79.4301 31.7942 79.2407 31.8484 79.1053 31.9702C78.97 32.0921 78.9023 32.2546 78.8752 32.4848H77.9008C77.9279 32.2275 77.982 32.0108 78.0903 31.8348C78.1986 31.6588 78.3339 31.5098 78.4963 31.388C78.6587 31.2661 78.8482 31.1848 79.0647 31.1307C79.2813 31.0765 79.5113 31.0494 79.7549 31.0494C79.9985 31.0494 80.2286 31.0765 80.4316 31.1307C80.6482 31.1848 80.8241 31.2661 80.9865 31.4015C81.1489 31.5234 81.2707 31.6859 81.3519 31.889C81.4467 32.0921 81.4873 32.3358 81.4873 32.6337V35.4773H80.4993V34.9492C80.3504 35.1388 80.1745 35.2878 79.9715 35.3961C79.7955 35.518 79.5249 35.5721 79.2001 35.5721ZM79.4301 34.8544C79.7414 34.8544 79.9985 34.7732 80.2016 34.6243C80.4046 34.4753 80.4993 34.2586 80.4993 33.9743V33.541H79.985C79.6061 33.541 79.2948 33.5951 79.0782 33.6899C78.8482 33.7983 78.7399 33.9743 78.7399 34.2451C78.7399 34.4211 78.794 34.5701 78.9023 34.6784C79.0106 34.8003 79.1865 34.8544 79.4301 34.8544Z" fill="black"/>
<path d="M82.6918 31.1442H83.6933V31.9567C83.8286 31.6859 84.0046 31.4692 84.2346 31.3067C84.4512 31.1578 84.7489 31.0765 85.1143 31.0765V32.0109C84.8978 32.0109 84.6948 32.0379 84.5188 32.0786C84.3429 32.1192 84.194 32.1869 84.0722 32.2817C83.9504 32.3765 83.8557 32.4983 83.788 32.6473C83.7203 32.7962 83.6933 32.9858 83.6933 33.2296V35.4909H82.6918V31.1442Z" fill="black"/>
<path d="M87.5368 35.5721C87.1037 35.5721 86.7789 35.4637 86.5624 35.2335C86.3458 35.0169 86.224 34.6919 86.224 34.2721V31.9025H85.6421V31.1577H86.224V30.2098H87.2256V31.1577H88.1729V31.9025H87.2256V34.1909C87.2256 34.3805 87.2662 34.5294 87.3474 34.6107C87.4286 34.7054 87.5504 34.7461 87.7128 34.7461C87.9022 34.7461 88.0646 34.719 88.2 34.6648V35.4637C88.1188 35.4908 88.024 35.5179 87.9158 35.545C87.821 35.5585 87.6992 35.5721 87.5368 35.5721Z" fill="black"/>
<path d="M93.0992 35.5721C92.7744 35.5721 92.4766 35.518 92.206 35.4096C91.9353 35.3013 91.7052 35.1524 91.5022 34.9628C91.2992 34.7732 91.1503 34.543 91.042 34.2722C90.9338 34.0014 90.8796 33.7035 90.8796 33.3649V33.2972C90.8796 32.9587 90.9338 32.6473 91.0556 32.3765C91.1638 32.1056 91.3263 31.8619 91.5293 31.6723C91.7323 31.4692 91.9623 31.3203 92.233 31.2119C92.5037 31.1036 92.8014 31.0494 93.1263 31.0494C93.4511 31.0494 93.7353 31.1036 94.006 31.2119C94.2766 31.3203 94.5067 31.4692 94.7097 31.6588C94.9127 31.8619 95.0616 32.0921 95.1834 32.3629C95.2917 32.6337 95.3593 32.9316 95.3593 33.2702V33.3379C95.3593 33.6764 95.3052 33.9878 95.1834 34.2586C95.0751 34.5295 94.9127 34.7732 94.7097 34.9628C94.5067 35.1659 94.2766 35.3148 94.006 35.4096C93.7082 35.518 93.424 35.5721 93.0992 35.5721ZM93.0992 34.7867C93.4781 34.7867 93.7623 34.6649 93.9789 34.4076C94.1954 34.1503 94.2902 33.7983 94.2902 33.3514V33.2972C94.2902 32.8504 94.1819 32.4983 93.9789 32.241C93.7759 31.9838 93.4781 31.8619 93.0992 31.8619C92.7202 31.8619 92.4225 31.9838 92.2195 32.241C92.003 32.4983 91.8947 32.8504 91.8947 33.2972V33.3649C91.8947 33.8118 92.0029 34.1639 92.206 34.4211C92.4225 34.6513 92.7202 34.7867 93.0992 34.7867Z" fill="black"/>
<path d="M96.4422 31.9025H95.8467V31.1577H96.4422V30.5755C96.4422 30.088 96.564 29.7224 96.8211 29.4786C97.0783 29.2349 97.4301 29.0995 97.9038 29.0995C98.0256 29.0995 98.1339 29.113 98.2151 29.1266C98.2963 29.1401 98.391 29.1672 98.4858 29.1943V29.9796C98.4181 29.9526 98.3504 29.939 98.2828 29.9255C98.2016 29.9119 98.1204 29.8984 98.0256 29.8984C97.8226 29.8984 97.6737 29.9526 97.5925 30.0744C97.4978 30.1963 97.4572 30.3453 97.4572 30.5348V31.1577H98.4452V31.9025H97.4572V35.4908H96.4557V31.9025H96.4422Z" fill="black"/>
<path d="M102.749 29.5599H104.941L106.823 35.4909H105.023L104.711 34.3805H102.749L102.438 35.4909H100.854L102.749 29.5599ZM103.087 33.216H104.386L103.737 30.9276L103.087 33.216Z" fill="black"/>
<path d="M109.326 35.5857C109.001 35.5857 108.704 35.545 108.42 35.4502C108.149 35.3555 107.905 35.22 107.702 35.0305C107.499 34.8544 107.337 34.6242 107.215 34.3399C107.093 34.0691 107.039 33.7441 107.039 33.3785V33.3108C107.039 32.9452 107.093 32.6337 107.215 32.3494C107.337 32.065 107.499 31.8348 107.716 31.6317C107.932 31.4421 108.176 31.2932 108.447 31.1848C108.731 31.0765 109.029 31.0359 109.353 31.0359C109.624 31.0359 109.881 31.063 110.125 31.1307C110.368 31.1984 110.585 31.2932 110.788 31.4286C110.977 31.5775 111.14 31.7536 111.262 31.9838C111.383 32.214 111.465 32.4848 111.478 32.8233H110.084C110.057 32.6202 109.976 32.4577 109.868 32.3494C109.759 32.241 109.597 32.1869 109.38 32.1869C109.11 32.1869 108.907 32.2817 108.771 32.4712C108.623 32.6608 108.555 32.9316 108.555 33.2972V33.3649C108.555 33.7441 108.623 34.0284 108.771 34.218C108.92 34.4076 109.123 34.5024 109.407 34.5024C109.624 34.5024 109.786 34.4347 109.922 34.3263C110.057 34.218 110.138 34.0284 110.165 33.7847H111.505C111.478 34.3263 111.289 34.7732 110.923 35.0982C110.571 35.4232 110.03 35.5857 109.326 35.5857Z" fill="black"/>
<path d="M114.239 35.5857C113.914 35.5857 113.617 35.545 113.332 35.4502C113.062 35.3555 112.818 35.22 112.615 35.0305C112.412 34.8544 112.25 34.6242 112.128 34.3399C112.006 34.0691 111.952 33.7441 111.952 33.3785V33.3108C111.952 32.9452 112.006 32.6337 112.128 32.3494C112.25 32.065 112.412 31.8348 112.629 31.6317C112.845 31.4421 113.089 31.2932 113.359 31.1848C113.644 31.0765 113.941 31.0359 114.266 31.0359C114.537 31.0359 114.794 31.063 115.038 31.1307C115.281 31.1984 115.498 31.2932 115.701 31.4286C115.89 31.5775 116.053 31.7536 116.174 31.9838C116.296 32.214 116.377 32.4848 116.391 32.8233H114.997C114.97 32.6202 114.889 32.4577 114.78 32.3494C114.672 32.241 114.51 32.1869 114.293 32.1869C114.023 32.1869 113.82 32.2817 113.684 32.4712C113.535 32.6608 113.468 32.9316 113.468 33.2972V33.3649C113.468 33.7441 113.535 34.0284 113.684 34.218C113.833 34.4076 114.036 34.5024 114.32 34.5024C114.537 34.5024 114.699 34.4347 114.835 34.3263C114.97 34.218 115.051 34.0284 115.078 33.7847H116.418C116.391 34.3263 116.202 34.7732 115.836 35.0982C115.471 35.4232 114.943 35.5857 114.239 35.5857Z" fill="black"/>
<path d="M119.206 35.5856C118.868 35.5856 118.543 35.5315 118.259 35.4367C117.974 35.3419 117.731 35.1929 117.514 35.0034C117.298 34.8138 117.135 34.5836 117.027 34.3128C116.905 34.042 116.851 33.717 116.851 33.3649V33.2972C116.851 32.9451 116.905 32.6337 117.027 32.3493C117.149 32.065 117.311 31.8348 117.528 31.6317C117.744 31.4286 117.988 31.2796 118.272 31.1713C118.556 31.063 118.868 31.0088 119.192 31.0088C119.49 31.0088 119.774 31.0494 120.045 31.1442C120.316 31.239 120.546 31.3744 120.749 31.5504C120.952 31.7265 121.101 31.9702 121.223 32.241C121.344 32.5254 121.398 32.8639 121.398 33.243V33.6357H118.34C118.367 33.9201 118.448 34.1503 118.61 34.2992C118.773 34.4617 118.976 34.5294 119.247 34.5294C119.49 34.5294 119.68 34.4753 119.788 34.3805C119.896 34.2857 119.977 34.1638 120.004 34.0149H121.398C121.331 34.5024 121.114 34.8815 120.749 35.1523C120.383 35.4638 119.869 35.5856 119.206 35.5856ZM119.964 32.8233C119.95 32.5525 119.883 32.3493 119.761 32.2139C119.639 32.0785 119.45 32.0108 119.206 32.0108C118.976 32.0108 118.8 32.0785 118.651 32.2139C118.502 32.3493 118.421 32.5525 118.38 32.8233H119.964Z" fill="black"/>
<path d="M122.116 31.1442H123.605V31.8483C123.726 31.6181 123.902 31.4286 124.132 31.2661C124.362 31.1036 124.674 31.0223 125.039 31.0223C125.459 31.0223 125.797 31.1577 126.068 31.4286C126.325 31.6994 126.46 32.1056 126.46 32.6608V35.4773H124.971V32.9587C124.971 32.715 124.917 32.5254 124.823 32.4035C124.728 32.2816 124.565 32.2275 124.349 32.2275C124.132 32.2275 123.943 32.2952 123.808 32.4306C123.672 32.566 123.605 32.7691 123.605 33.0535V35.4773H122.116V31.1442Z" fill="black"/>
<path d="M129.086 35.5856C128.598 35.5856 128.22 35.4637 127.949 35.22C127.692 34.9763 127.556 34.5971 127.556 34.0826V32.1462H127.029V31.1306H127.556V30.2234H129.045V31.1306H129.898V32.1462H129.045V33.9336C129.045 34.0826 129.086 34.1909 129.153 34.2721C129.235 34.3534 129.343 34.394 129.478 34.394C129.559 34.394 129.641 34.394 129.708 34.3805C129.776 34.3669 129.844 34.3534 129.911 34.3263V35.4502C129.817 35.4773 129.695 35.5044 129.559 35.5314C129.424 35.5721 129.262 35.5856 129.086 35.5856Z" fill="black"/>
<path d="M132.077 35.5857C131.86 35.5857 131.671 35.5586 131.495 35.4909C131.319 35.4232 131.17 35.3284 131.035 35.193C130.899 35.0576 130.804 34.8951 130.723 34.692C130.642 34.4889 130.615 34.2451 130.615 33.9743V31.1443H132.104V33.7306C132.104 33.9743 132.158 34.1504 132.253 34.2722C132.361 34.3941 132.51 34.4483 132.713 34.4483C132.943 34.4483 133.119 34.3806 133.254 34.2451C133.389 34.1097 133.457 33.9066 133.457 33.6223V31.1172H134.946V35.4638H133.457V34.7868C133.335 35.017 133.173 35.193 132.956 35.342C132.74 35.518 132.442 35.5857 132.077 35.5857Z" fill="black"/>
<path d="M135.893 31.1443H137.382V32.0109C137.517 31.6859 137.707 31.4422 137.937 31.3067C138.167 31.1578 138.451 31.0901 138.789 31.0901V32.4713C138.329 32.4577 137.991 32.5254 137.747 32.6744C137.504 32.8233 137.382 33.0671 137.382 33.4191V35.4774H135.893V31.1443Z" fill="black"/>
<path d="M141.591 35.5856C141.253 35.5856 140.928 35.5315 140.644 35.4367C140.359 35.3419 140.116 35.1929 139.899 35.0034C139.683 34.8138 139.52 34.5836 139.412 34.3128C139.29 34.042 139.236 33.717 139.236 33.3649V33.2972C139.236 32.9451 139.29 32.6337 139.412 32.3493C139.534 32.065 139.696 31.8348 139.913 31.6317C140.129 31.4286 140.373 31.2796 140.657 31.1713C140.941 31.063 141.253 31.0088 141.577 31.0088C141.875 31.0088 142.159 31.0494 142.43 31.1442C142.701 31.239 142.931 31.3744 143.134 31.5504C143.337 31.7265 143.486 31.9702 143.608 32.241C143.729 32.5254 143.783 32.8639 143.783 33.243V33.6357H140.725C140.752 33.9201 140.833 34.1503 140.995 34.2992C141.158 34.4617 141.361 34.5294 141.632 34.5294C141.875 34.5294 142.065 34.4753 142.173 34.3805C142.281 34.2857 142.362 34.1638 142.389 34.0149H143.783C143.716 34.5024 143.499 34.8815 143.134 35.1523C142.755 35.4638 142.241 35.5856 141.591 35.5856ZM142.335 32.8233C142.322 32.5525 142.254 32.3493 142.132 32.2139C142.011 32.0785 141.821 32.0108 141.577 32.0108C141.347 32.0108 141.171 32.0785 141.023 32.2139C140.874 32.3493 140.792 32.5525 140.752 32.8233H142.335Z" fill="black"/>
</svg>
